<!-- Generator: Adobe Illustrator 19.2.1, SVG Export Plug-In  -->
<svg version="1.1"
	 xmlns="http://www.w3.org/2000/svg" xmlns:xlink="http://www.w3.org/1999/xlink" xmlns:a="http://ns.adobe.com/AdobeSVGViewerExtensions/3.0/"
	 x="0px" y="0px" width="256.6px" height="43.3px" viewBox="0 0 256.6 43.3" style="enable-background:new 0 0 256.6 43.3;"
	 xml:space="preserve">
<style type="text/css">
	.st0{fill:#4267B2;}
	.st1{clip-path:url(#SVGID_2_);}
	.st2{clip-path:url(#SVGID_4_);}
	.st3{clip-path:url(#SVGID_11_);}
	.st4{clip-path:url(#SVGID_12_);}
	.st5{clip-path:url(#SVGID_13_);}
	.st6{clip-path:url(#SVGID_14_);}
	.st7{clip-path:url(#SVGID_15_);}
	.st8{clip-path:url(#SVGID_16_);fill:#36383D;}
	.st9{clip-path:url(#SVGID_16_);fill:#FFFFFF;}
	.st10{clip-path:url(#SVGID_16_);fill:#ECEEF7;}
	.st11{clip-path:url(#SVGID_16_);fill:#7082AC;}
	.st12{clip-path:url(#SVGID_16_);fill:#7C8DB1;}
	.st13{clip-path:url(#SVGID_16_);}
	.st14{opacity:0.5;}
	.st15{clip-path:url(#SVGID_18_);fill:#D2D2D1;}
	.st16{clip-path:url(#SVGID_20_);fill:#ECEEF7;}
	.st17{fill:#465B94;}
	.st18{fill:#FFFFFF;}
	.st19{fill:#00ACEC;}
	.st20{clip-path:url(#SVGID_22_);}
	.st21{clip-path:url(#SVGID_24_);}
	.st22{clip-path:url(#SVGID_31_);}
	.st23{clip-path:url(#SVGID_32_);}
	.st24{clip-path:url(#SVGID_33_);}
	.st25{clip-path:url(#SVGID_34_);}
	.st26{clip-path:url(#SVGID_35_);}
	.st27{clip-path:url(#SVGID_36_);fill:#36383D;}
	.st28{clip-path:url(#SVGID_36_);fill:#FFFFFF;}
	.st29{clip-path:url(#SVGID_36_);fill:#ECEEF7;}
	.st30{clip-path:url(#SVGID_36_);fill:#7082AC;}
	.st31{clip-path:url(#SVGID_36_);fill:#7C8DB1;}
	.st32{clip-path:url(#SVGID_36_);}
	.st33{clip-path:url(#SVGID_38_);fill:#D2D2D1;}
	.st34{clip-path:url(#SVGID_40_);fill:#ECEEF7;}
</style>
<defs>
</defs>
<path class="st0" d="M2.8,43.3c-1.5,0-2.8-1.4-2.8-3.1V3.4c0-1.7,1.2-3.1,2.8-3.1h87.5c1.5,0,2.8,1.4,2.8,3.1v36.8
	c0,1.7-1.2,3.1-2.8,3.1H2.8z"/>
<g>
	<defs>
		<rect id="SVGID_1_" x="21.9" y="12" width="19.5" height="19.4"/>
	</defs>
	<clipPath id="SVGID_2_">
		<use xlink:href="#SVGID_1_"  style="overflow:visible;"/>
	</clipPath>
	<g class="st1">
		<defs>
			<rect id="SVGID_3_" x="21.9" y="12" width="19.5" height="19.4"/>
		</defs>
		<clipPath id="SVGID_4_">
			<use xlink:href="#SVGID_3_"  style="overflow:visible;"/>
		</clipPath>
		<g class="st2">
			<g>
				<defs>
					<rect id="SVGID_5_" x="21.9" y="12" width="19.5" height="19.4"/>
				</defs>
				<defs>
					<rect id="SVGID_6_" x="21.9" y="12" width="19.5" height="19.4"/>
				</defs>
				<defs>
					<rect id="SVGID_7_" x="21.9" y="12" width="19.5" height="19.4"/>
				</defs>
				<defs>
					<rect id="SVGID_8_" x="21.9" y="12" width="19.5" height="19.4"/>
				</defs>
				<defs>
					<rect id="SVGID_9_" x="21.9" y="12" width="19.5" height="19.4"/>
				</defs>
				<defs>
					<rect id="SVGID_10_" x="21.9" y="12" width="19.5" height="19.4"/>
				</defs>
				<clipPath id="SVGID_11_">
					<use xlink:href="#SVGID_5_"  style="overflow:visible;"/>
				</clipPath>
				<clipPath id="SVGID_12_" class="st3">
					<use xlink:href="#SVGID_6_"  style="overflow:visible;"/>
				</clipPath>
				<clipPath id="SVGID_13_" class="st4">
					<use xlink:href="#SVGID_7_"  style="overflow:visible;"/>
				</clipPath>
				<clipPath id="SVGID_14_" class="st5">
					<use xlink:href="#SVGID_8_"  style="overflow:visible;"/>
				</clipPath>
				<clipPath id="SVGID_15_" class="st6">
					<use xlink:href="#SVGID_9_"  style="overflow:visible;"/>
				</clipPath>
				<clipPath id="SVGID_16_" class="st7">
					<use xlink:href="#SVGID_10_"  style="overflow:visible;"/>
				</clipPath>
				<path class="st8" d="M40.8,22.6c1-1.1,0.7-3.3-1-3.3l-4.5,0c0.2-1.1,0.4-2.8,0.4-3c-0.1-1.6-1-3.5-1-3.6c-0.2-0.3-1-0.8-1.8-0.6
					c-1.1,0.3-1.2,1-1.2,1.2c0,0,0,2.1,0.1,2.7c-0.5,1.3-2.3,4.6-2.8,4.9c-0.1-0.1-0.3-0.1-0.4-0.1h-5.7c-0.5,0-0.9,0.4-0.9,1l0,0
					l0,8.8c0,0.5,0.4,0.8,0.8,0.8h5.1c0.5,0,0.8-0.4,0.8-0.9v-0.3c0,0,0.2,0,0.3,0c0.3,0.2,0.7,0.5,1.3,0.5h7.6
					c2.8,0,2.5-2.8,2.3-3.2c0.5-0.6,0.8-1.6,0.4-2.4C40.8,24.7,41.3,23.7,40.8,22.6"/>
				<path class="st9" d="M39.7,20.2h-5.4c0.2-0.9,0.6-3.9,0.6-3.9c-0.1-1.4-0.9-3.2-0.9-3.2c-1-0.5-1.5,0.2-1.5,0.2s0.1,2.3,0.1,2.8
					c0,0.5-2.3,4.7-2.9,5.3c-0.3,0.3-0.8,0.7-1.3,1v6.8l0.4,0c0.4,0,0.9,0.7,1.4,0.7l7.7,0c1.6,0,1.8-2,0.8-2.2l0-0.2
					c1-0.1,1.6-1.9,0.3-2.2l0-0.2c0.9-0.1,1.6-1.8,0.3-2.2l0-0.2C40.7,22.3,41,20.2,39.7,20.2"/>
				<path class="st10" d="M39.4,22.8l0-0.2c1.2-0.2,1.5-2.3,0.2-2.3h-2.6c1.3,0,1.1,2.1-0.2,2.3l0,0.1c1.3,0.4,0.6,2.2-0.4,2.3
					l0,0.1c1.3,0.4,0.6,2.2-0.4,2.3l0,0.1c1,0.2,0.8,2.2-0.8,2.2l-5.2,0l0,0l7.7,0c1.6,0,1.8-2,0.8-2.2l0-0.2c1-0.1,1.6-1.9,0.3-2.2
					l0-0.2C40.1,24.9,40.8,23.2,39.4,22.8"/>
				<path class="st11" d="M22.7,21.7h5.1v8.8h-5.1V21.7z"/>
				<path class="st12" d="M22.7,30.5h5.1v-8.8h-5.1V30.5L22.7,30.5z M27.5,30.1H23v-7.3l4.5,0V30.1z"/>
				<g class="st13">
					<g class="st14">
						<defs>
							<rect id="SVGID_17_" x="28.4" y="21.8" class="st14" width="0.8" height="7.5"/>
						</defs>
						<clipPath id="SVGID_18_">
							<use xlink:href="#SVGID_17_"  style="overflow:visible;"/>
						</clipPath>
						<path class="st15" d="M29.2,29.3v-7.5c0,0-0.7,0.5-0.8,0.6v6.8l0.4,0C28.9,29.1,29,29.2,29.2,29.3"/>
					</g>
					<g>
						<defs>
							<rect id="SVGID_19_" x="21.9" y="12" width="19.5" height="19.4"/>
						</defs>
						<clipPath id="SVGID_20_">
							<use xlink:href="#SVGID_19_"  style="overflow:visible;"/>
						</clipPath>
						<path class="st16" d="M33.2,12.9L33.2,12.9c0,0,0.6,2.6,0.6,3c0,0.4-1.9,3.6-1.7,4c0.3,0.6,2.1,0.3,2.1,0.3
							c0.2-0.9,0.6-3.9,0.6-3.9c-0.1-1.4-0.9-3.2-0.9-3.2C33.9,13.1,33.6,12.9,33.2,12.9"/>
					</g>
				</g>
			</g>
			<path class="st17" d="M45.4,30.3V16.4H47v12.1h6v1.8L45.4,30.3L45.4,30.3z M55.3,17.9c-0.7,0-1.1-0.6-1.1-1.3
				c0-0.7,0.3-1.3,1.1-1.3s1.1,0.6,1.1,1.3C56.3,17.2,56,17.9,55.3,17.9z M54.5,30.3V20.1l1.6-0.3v10.5L54.5,30.3L54.5,30.3z
				 M60,25.2v5h-1.6V15.3L60,15v9.7h0l3.7-4.7h2.1l-4.1,4.8l4.2,5.3h-2.1L60,25.2L60,25.2z M67.5,25.5c0.1,2,1.2,3.4,3,3.4
				c0.9,0,2-0.3,2.7-0.8l0.3,1.7c-0.8,0.6-1.9,0.8-3,0.8c-2.7,0-4.6-2.2-4.6-5.3c0-3.3,1.9-5.5,4.5-5.5c2.2,0,3.5,1.6,3.5,4
				c0,0.6-0.1,1.2-0.2,1.6L67.5,25.5L67.5,25.5L67.5,25.5z M72.2,24v-0.2c0-1.5-0.6-2.5-2.1-2.5c-1.5,0-2.4,1.4-2.6,2.7L72.2,24
				L72.2,24z"/>
		</g>
	</g>
</g>
<g>
	<path class="st18" d="M44.2,30.8V17h1.7V29h6v1.8L44.2,30.8L44.2,30.8z M54.2,18.4c-0.7,0-1.1-0.6-1.1-1.3c0-0.7,0.3-1.3,1.1-1.3
		s1.1,0.6,1.1,1.3C55.2,17.8,54.9,18.4,54.2,18.4z M53.3,30.8V20.6l1.6-0.3v10.5L53.3,30.8L53.3,30.8z M58.9,25.8v5h-1.6V15.9
		l1.6-0.3v9.7h0l3.7-4.7h2.1l-4.1,4.8l4.2,5.3h-2.1L58.9,25.8L58.9,25.8z M66.4,26.1c0.1,2,1.2,3.4,3,3.4c0.9,0,2-0.3,2.7-0.8
		l0.3,1.7c-0.8,0.6-1.9,0.8-3,0.8c-2.7,0-4.6-2.2-4.6-5.3c0-3.3,1.9-5.5,4.5-5.5c2.2,0,3.5,1.6,3.5,4c0,0.6-0.1,1.2-0.2,1.6
		L66.4,26.1L66.4,26.1L66.4,26.1z M71.1,24.6v-0.2c0-1.5-0.6-2.5-2.1-2.5c-1.5,0-2.4,1.4-2.6,2.7L71.1,24.6L71.1,24.6z"/>
</g>
<g>
	<path class="st19" d="M166.3,43c-1.5,0-2.8-1.4-2.8-3.1V3.1c0-1.7,1.2-3.1,2.8-3.1h87.5c1.5,0,2.8,1.4,2.8,3.1v36.8
		c0,1.7-1.2,3.1-2.8,3.1H166.3z"/>
	<g>
		<path class="st18" d="M180,27c-2.4,0-4.3-1.9-4.3-4.3l0-5c0-0.7,0.6-1.2,1.3-1.2c0.7,0,1.2,0.6,1.2,1.2v1.9h3.1
			c0.7,0,1.2,0.6,1.2,1.3c0,0.7-0.6,1.2-1.2,1.2h-3.1v0.6c0,1,0.8,1.9,1.9,1.9l0,0h1.9c0.7,0,1.2,0.6,1.2,1.2c0,0.7-0.6,1.2-1.2,1.2
			h0L180,27L180,27z M217.1,26.8c-2.4,0-4.3-1.9-4.3-4.3v-5c0-0.7,0.6-1.2,1.2-1.2c0.7,0,1.2,0.6,1.2,1.2l0,0v1.9h1.9
			c0.7,0,1.2,0.6,1.2,1.2c0,0.7-0.6,1.2-1.2,1.2h-1.9v0.6c0,1,0.8,1.9,1.9,1.9h0h0.6c0.7,0,1.2,0.6,1.2,1.2c0,0.7-0.6,1.2-1.2,1.2
			L217.1,26.8L217.1,26.8z M194.6,19.5c-0.7,0-1.2,0.6-1.2,1.2v0v2.5c0,0.7-0.6,1.2-1.3,1.2c-0.7,0-1.2-0.6-1.2-1.2v-2.5
			c0-0.7-0.5-1.3-1.2-1.3c-0.7,0-1.3,0.5-1.3,1.2c0,0,0,0,0,0v2.5c0,0.7-0.6,1.2-1.2,1.2c-0.7,0-1.2-0.6-1.2-1.2v-2.5
			c0-0.7-0.6-1.2-1.2-1.2c-0.7,0-1.2,0.6-1.2,1.2v2.5c0,2.1,1.7,3.7,3.7,3.7c1,0,1.8-0.4,2.5-1c0.7,0.6,1.5,1,2.5,1
			c2.1,0,3.7-1.7,3.7-3.7v-2.5C195.9,20.1,195.3,19.5,194.6,19.5L194.6,19.5z"/>
		<path class="st18" d="M236.3,19.7c0.6-1.9,1.4-3.1,2.2-4c0.6-0.7,1-0.9,0.6-0.1c0.2-0.1,0.4-0.3,0.6-0.4c1-0.5,1-0.1,0.2,0.4
			c2-0.7,1.9,0.2-0.2,0.6c1.7,0,3.5,1.1,4,3.4c0.1,0.3,0,0.3,0.3,0.3c0.7,0.1,1.4,0.1,2-0.1c-0.1,0.5-0.7,0.8-1.7,1
			c-0.4,0.1-0.4,0.1,0,0.2c0.5,0.1,1.1,0.2,1.8,0.1c-0.5,0.6-1.3,0.9-2.2,0.9c-0.6,2.2-2,3.8-3.7,4.8c-4.1,2.3-10.1,2-13.1-2.2
			c2,1.5,4.9,1.9,7.1-0.3c-1.4,0-1.8-1.1-0.7-1.6c-1.1,0-1.7-0.3-2.1-1c-0.2-0.2-0.2-0.2,0.1-0.4c0.3-0.2,0.6-0.3,1-0.3
			c-1.1-0.3-1.8-0.9-2-1.7c-0.1-0.3-0.1-0.2,0.2-0.3c0.3-0.1,0.6-0.1,0.9-0.1c-0.9-0.5-1.4-1.2-1.5-1.9c-0.1-0.7,0-0.5,0.5-0.3
			C232.7,17.4,235,18.3,236.3,19.7L236.3,19.7z"/>
		<path class="st18" d="M212.1,22.6c0,0.4-0.2,1.2-0.8,1.2l-4.1,0c0.1,0.6,0.6,0.9,1.2,0.9h2.7c0.6,0,1.1,0.5,1.1,1.1
			c0,0.6-0.5,1.1-1.1,1.1l0,0h-2.7c-2.1,0-3.7-1.7-3.7-4c0-2.1,1.7-3.4,3.7-3.4C210.4,19.5,212.1,20.9,212.1,22.6L212.1,22.6z
			 M209.6,22.3c0-0.6-0.6-1-1.2-1s-1.2,0.5-1.2,1H209.6z"/>
		<path class="st18" d="M204,22.6c0,0.4-0.2,1.2-0.8,1.2l-4.1,0c0.1,0.6,0.6,0.9,1.2,0.9h2.7c0.6,0,1.1,0.5,1.1,1.1
			c0,0.6-0.5,1.1-1.1,1.1l0,0h-2.7c-2.1,0-3.7-1.7-3.7-4c0-2.1,1.7-3.4,3.7-3.4C202.3,19.5,204,20.9,204,22.6L204,22.6z M201.5,22.3
			c0-0.6-0.6-1-1.2-1s-1.2,0.5-1.2,1H201.5z"/>
	</g>
</g>
</svg>