<!-- Generator: Adobe Illustrator 19.2.1, SVG Export Plug-In  -->
<svg version="1.1"
	 xmlns="http://www.w3.org/2000/svg" xmlns:xlink="http://www.w3.org/1999/xlink" xmlns:a="http://ns.adobe.com/AdobeSVGViewerExtensions/3.0/"
	 x="0px" y="0px" width="218.8px" height="30.1px" viewBox="0 0 218.8 30.1" style="enable-background:new 0 0 218.8 30.1;"
	 xml:space="preserve">
<style type="text/css">
	.st0{clip-path:url(#XMLID_95_);fill:url(#XMLID_96_);}
	.st1{clip-path:url(#XMLID_97_);fill:url(#XMLID_98_);}
	.st2{clip-path:url(#XMLID_99_);fill:url(#XMLID_100_);}
	.st3{clip-path:url(#XMLID_101_);fill:url(#XMLID_102_);}
	.st4{fill:#F9F9F9;}
	.st5{fill:#F9F9FA;}
	.st6{fill:#FFFFFF;}
	.st7{fill:#A6A6A6;}
	.st8{fill:url(#SVGID_1_);}
	.st9{clip-path:url(#XMLID_103_);fill:url(#XMLID_104_);}
	.st10{clip-path:url(#XMLID_105_);fill:url(#XMLID_106_);}
	.st11{clip-path:url(#XMLID_107_);fill:url(#XMLID_108_);}
	.st12{clip-path:url(#XMLID_109_);fill:url(#XMLID_110_);}
	.st13{fill:url(#SVGID_2_);}
</style>
<defs>
</defs>
<g id="XMLID_38_">
	<path id="XMLID_94_" d="M92.1,26.1c0,2.2-1.8,4.1-4.1,4.1h-84c-2.2,0-4.1-1.8-4.1-4.1v-22C0,1.8,1.8,0,4.1,0h84
		c2.2,0,4.1,1.8,4.1,4.1L92.1,26.1L92.1,26.1L92.1,26.1z"/>
	<g id="XMLID_91_">
		<defs>
			<path id="XMLID_92_" d="M20,13.3l-4.2-2.4c0,0-7.6-4.4-8-4.6C7.4,6,6.9,6.1,6.9,6.7v18.8c0,0.4,0.3,0.6,0.7,0.4
				c0.4-0.2,8.2-4.7,8.2-4.7l4.2-2.4c0,0,3.5-2,4-2.3c0.5-0.3,0.4-0.6,0-0.9C23.6,15.4,20,13.3,20,13.3L20,13.3z"/>
		</defs>
		<clipPath id="XMLID_95_">
			<use xlink:href="#XMLID_92_"  style="overflow:visible;"/>
		</clipPath>
		
			<linearGradient id="XMLID_96_" gradientUnits="userSpaceOnUse" x1="2289.8074" y1="-2206.1177" x2="2289.8074" y2="-2204.417" gradientTransform="matrix(12 0 0 12 -27465.6309 26479.2129)">
			<stop  offset="0" style="stop-color:#257CB0"/>
			<stop  offset="0.286" style="stop-color:#4A93B5"/>
			<stop  offset="0.767" style="stop-color:#78BCBB"/>
			<stop  offset="1" style="stop-color:#89CFBD"/>
		</linearGradient>
		<path id="XMLID_93_" class="st0" d="M6.9,5.8v20.4L17.2,16L6.9,5.8z"/>
	</g>
	<g id="XMLID_88_">
		<defs>
			<path id="XMLID_89_" d="M20,13.3l-4.2-2.4c0,0-7.6-4.4-8-4.6C7.4,6,6.9,6.1,6.9,6.7v18.8c0,0.4,0.3,0.6,0.7,0.4
				c0.4-0.2,8.2-4.7,8.2-4.7l4.2-2.4c0,0,3.5-2,4-2.3c0.5-0.3,0.4-0.6,0-0.9C23.6,15.4,20,13.3,20,13.3L20,13.3z"/>
		</defs>
		<clipPath id="XMLID_97_">
			<use xlink:href="#XMLID_89_"  style="overflow:visible;"/>
		</clipPath>
		
			<linearGradient id="XMLID_98_" gradientUnits="userSpaceOnUse" x1="2289.3784" y1="-2205.6956" x2="2290.4663" y2="-2205.6956" gradientTransform="matrix(12 0 0 12 -27465.6309 26479.2129)">
			<stop  offset="0" style="stop-color:#52C1AD"/>
			<stop  offset="1" style="stop-color:#DEE89A"/>
		</linearGradient>
		<path id="XMLID_90_" class="st1" d="M20,13.3l-4.2-2.4L6.9,5.7v0.1L17.2,16L20,13.3z"/>
	</g>
	<g id="XMLID_85_">
		<defs>
			<path id="XMLID_86_" d="M20,13.3l-4.2-2.4c0,0-7.6-4.4-8-4.6C7.4,6,6.9,6.1,6.9,6.7v18.8c0,0.4,0.3,0.6,0.7,0.4
				c0.4-0.2,8.2-4.7,8.2-4.7l4.2-2.4c0,0,3.5-2,4-2.3c0.5-0.3,0.4-0.6,0-0.9C23.6,15.4,20,13.3,20,13.3L20,13.3z"/>
		</defs>
		<clipPath id="XMLID_99_">
			<use xlink:href="#XMLID_86_"  style="overflow:visible;"/>
		</clipPath>
		
			<linearGradient id="XMLID_100_" gradientUnits="userSpaceOnUse" x1="2289.9224" y1="-2205.2673" x2="2289.9224" y2="-2204.4106" gradientTransform="matrix(12 0 0 12 -27465.6309 26479.2129)">
			<stop  offset="0" style="stop-color:#EC413D"/>
			<stop  offset="0.167" style="stop-color:#DA4452"/>
			<stop  offset="0.575" style="stop-color:#B0487A"/>
			<stop  offset="0.862" style="stop-color:#954A92"/>
			<stop  offset="1" style="stop-color:#8A4A9D"/>
		</linearGradient>
		<path id="XMLID_87_" class="st2" d="M6.9,26.2L6.9,26.2l8.9-5.1l4.2-2.4L17.2,16L6.9,26.2z"/>
	</g>
	<g id="XMLID_82_">
		<defs>
			<path id="XMLID_83_" d="M20,13.3l-4.2-2.4c0,0-7.6-4.4-8-4.6C7.4,6,6.9,6.1,6.9,6.7v18.8c0,0.4,0.3,0.6,0.7,0.4
				c0.4-0.2,8.2-4.7,8.2-4.7l4.2-2.4c0,0,3.5-2,4-2.3c0.5-0.3,0.4-0.6,0-0.9C23.6,15.4,20,13.3,20,13.3L20,13.3z"/>
		</defs>
		<clipPath id="XMLID_101_">
			<use xlink:href="#XMLID_83_"  style="overflow:visible;"/>
		</clipPath>
		
			<linearGradient id="XMLID_102_" gradientUnits="userSpaceOnUse" x1="2290.5491" y1="-2205.4956" x2="2290.5491" y2="-2205.0388" gradientTransform="matrix(12 0 0 12 -27465.6309 26479.2129)">
			<stop  offset="0" style="stop-color:#F58879"/>
			<stop  offset="0.119" style="stop-color:#F69079"/>
			<stop  offset="0.713" style="stop-color:#FCB877"/>
			<stop  offset="1" style="stop-color:#FEC874"/>
		</linearGradient>
		<path id="XMLID_84_" class="st3" d="M20,13.3L17.2,16l2.8,2.7l4.7-2.7L20,13.3z"/>
	</g>
	<path id="XMLID_67_" class="st4" d="M71.7,20c-0.4,0-0.7-0.1-1.1-0.2c-0.3-0.1-0.6-0.4-0.8-0.7h-0.1c0,0.3,0.1,0.7,0.1,1v2.4h-0.9
		V14h0.7l0.1,0.8h0c0.2-0.3,0.5-0.6,0.8-0.7c0.3-0.1,0.7-0.2,1.1-0.2c0.8,0,1.4,0.3,1.8,0.8c0.4,0.5,0.6,1.3,0.6,2.3
		c0,1-0.2,1.7-0.7,2.3C73.1,19.7,72.5,20,71.7,20L71.7,20z M71.6,14.6c-0.6,0-1,0.2-1.3,0.5c-0.3,0.3-0.4,0.9-0.4,1.6v0.2
		c0,0.8,0.1,1.4,0.4,1.8c0.3,0.4,0.7,0.5,1.3,0.5c0.5,0,0.9-0.2,1.2-0.6c0.3-0.4,0.4-1,0.4-1.7c0-0.7-0.1-1.3-0.4-1.7
		C72.5,14.8,72.1,14.6,71.6,14.6L71.6,14.6z M76.2,19.9h-0.9v-8.4h0.9V19.9z M81.4,19.9L81.2,19h0c-0.3,0.4-0.6,0.6-0.9,0.8
		C80,19.9,79.6,20,79.2,20c-0.6,0-1-0.2-1.4-0.5c-0.3-0.3-0.5-0.7-0.5-1.3c0-1.2,1-1.8,2.9-1.9l1,0V16c0-0.5-0.1-0.8-0.3-1
		c-0.2-0.2-0.5-0.3-1-0.3c-0.5,0-1.1,0.2-1.7,0.5L78,14.4c0.3-0.2,0.6-0.3,1-0.4c0.3-0.1,0.7-0.1,1-0.1c0.7,0,1.2,0.2,1.6,0.5
		c0.3,0.3,0.5,0.8,0.5,1.5v4.1L81.4,19.9L81.4,19.9L81.4,19.9z M79.4,19.3c0.6,0,1-0.2,1.3-0.5c0.3-0.3,0.5-0.7,0.5-1.3V17l-0.9,0
		c-0.7,0-1.2,0.1-1.5,0.3c-0.3,0.2-0.5,0.5-0.5,0.9c0,0.3,0.1,0.6,0.3,0.7C78.8,19.2,79,19.3,79.4,19.3L79.4,19.3z M82.6,14h1
		l1.3,3.4c0.3,0.8,0.5,1.3,0.5,1.7h0c0-0.2,0.1-0.5,0.3-0.9c0.1-0.4,0.6-1.8,1.5-4.1h1l-2.6,6.8c-0.3,0.7-0.5,1.1-0.9,1.4
		c-0.3,0.3-0.8,0.4-1.2,0.4c-0.3,0-0.5,0-0.8-0.1v-0.7c0.2,0,0.4,0.1,0.7,0.1c0.6,0,1.1-0.3,1.3-1l0.3-0.8L82.6,14L82.6,14z
		 M55,14.5c0.3,0.2,0.9,0.7,0.9,1.7c0,0.9-0.5,1.4-1,1.8c-0.2,0.2-0.3,0.3-0.3,0.6c0,0.3,0.2,0.4,0.3,0.5l0.4,0.3
		c0.5,0.5,1,0.9,1,1.7c0,1.2-1.1,2.3-3.3,2.3c-1.8,0-2.7-0.9-2.7-1.8c0-0.4,0.2-1.1,1-1.5c0.8-0.5,1.8-0.5,2.4-0.6
		c-0.2-0.2-0.4-0.5-0.4-0.8c0-0.2,0.1-0.3,0.1-0.5c-0.1,0-0.3,0-0.4,0c-1.3,0-2.1-1-2.1-1.9c0-0.6,0.3-1.2,0.8-1.7
		c0.7-0.6,1.6-0.7,2.2-0.7h2.6l-0.8,0.4L55,14.5L55,14.5L55,14.5z M54.2,20c-0.1,0-0.2,0-0.3,0c-0.1,0-0.8,0-1.3,0.2
		c-0.3,0.1-1.1,0.4-1.1,1.3c0,0.9,0.9,1.5,2.2,1.5c1.2,0,1.8-0.6,1.8-1.3C55.5,21,55.1,20.7,54.2,20L54.2,20z M54.5,17.7
		c0.3-0.3,0.3-0.7,0.3-0.9c0-0.9-0.5-2.3-1.6-2.3c-0.3,0-0.7,0.2-0.9,0.4c-0.2,0.3-0.3,0.6-0.3,0.9c0,0.8,0.5,2.2,1.6,2.2
		C54,18,54.3,17.9,54.5,17.7L54.5,17.7z M47.2,19.8c-2,0-3-1.5-3-2.9c0-1.6,1.3-3,3.2-3c1.8,0,3,1.4,3,2.9
		C50.4,18.3,49.3,19.8,47.2,19.8L47.2,19.8z M48.8,18.8c0.3-0.4,0.4-0.9,0.4-1.4c0-1.1-0.5-3.2-2.1-3.2c-0.4,0-0.8,0.2-1.1,0.4
		c-0.5,0.4-0.6,1-0.6,1.5c0,1.2,0.6,3.2,2.1,3.2C48,19.4,48.5,19.2,48.8,18.8L48.8,18.8z M40.5,19.8c-2,0-3-1.5-3-2.9
		c0-1.6,1.3-3,3.2-3c1.8,0,3,1.4,3,2.9C43.7,18.3,42.5,19.8,40.5,19.8z M42.1,18.8c0.3-0.4,0.4-0.9,0.4-1.4c0-1.1-0.5-3.2-2.1-3.2
		c-0.4,0-0.8,0.2-1.1,0.4c-0.5,0.4-0.6,1-0.6,1.5c0,1.2,0.6,3.2,2.1,3.2C41.3,19.4,41.8,19.2,42.1,18.8z M36.5,19.6L34.8,20
		c-0.7,0.1-1.4,0.2-2.1,0.2c-3.4,0-4.7-2.5-4.7-4.5c0-2.4,1.9-4.7,5-4.7c0.7,0,1.3,0.1,1.9,0.3c0.9,0.3,1.4,0.6,1.6,0.8l-1,1
		l-0.4,0.1l0.3-0.5c-0.4-0.4-1.2-1.2-2.7-1.2c-2,0-3.5,1.5-3.5,3.7c0,2.3,1.7,4.5,4.4,4.5c0.8,0,1.2-0.2,1.6-0.3v-2l-1.9,0.1l1-0.5
		H37l-0.3,0.3c-0.1,0.1-0.1,0.1-0.1,0.2c0,0.1,0,0.5,0,0.6L36.5,19.6L36.5,19.6L36.5,19.6z"/>
	<path id="XMLID_61_" class="st4" d="M59,19.3c-0.4,0-0.5-0.1-0.5-0.6v-7.1c0,0,0-0.1,0-0.1c0.1-0.4,0.2-0.5,0.6-0.7h-1.8l-0.9,0.4
		h1v0l0,0v7.7c0,0.2,0,0.3-0.3,0.7h2.2l0.5-0.3C59.4,19.3,59.2,19.3,59,19.3L59,19.3z M64.1,19.4c-0.1,0.1-0.3,0.2-0.4,0.2
		c-0.4,0.2-0.8,0.2-1.2,0.2c-0.4,0-1,0-1.6-0.5c-0.9-0.6-1.3-1.7-1.3-2.6c0-1.9,1.6-2.9,2.8-2.9c0.4,0,0.9,0.1,1.3,0.3
		c0.6,0.4,0.8,0.9,0.9,1.2l-2.9,1.2l-1,0.1c0.3,1.6,1.4,2.5,2.5,2.5c0.6,0,1.1-0.2,1.5-0.4L64.1,19.4L64.1,19.4z M62.9,15.7
		c0.2-0.1,0.4-0.2,0.4-0.3c0-0.5-0.6-1.1-1.2-1.1c-0.5,0-1.4,0.4-1.4,1.7c0,0.2,0,0.4,0,0.7L62.9,15.7L62.9,15.7z M65.3,14v0.8h-0.1
		L65.3,14h-0.4v-0.1h0.6V14H65.3L65.3,14z M66.4,14.8V14h0l-0.3,0.8H66L65.8,14h0v0.8h-0.1v-0.9h0.2l0.2,0.7h0l0.2-0.7h0.2
		L66.4,14.8L66.4,14.8L66.4,14.8z"/>
	<path id="XMLID_39_" class="st5" d="M30.4,8.6h-0.6c0-0.1-0.1-0.3-0.2-0.7h-0.9c-0.1,0.4-0.2,0.6-0.2,0.7H28c0-0.1,0.2-0.5,0.5-1.2
		c0.3-0.8,0.5-1.2,0.5-1.3h0.7c0,0.1,0.1,0.5,0.4,1.3C30.3,8.2,30.4,8.6,30.4,8.6z M29.5,7.6c-0.2-0.7-0.3-1-0.3-1.1h0
		c0,0.1-0.1,0.4-0.3,1.1L29.5,7.6L29.5,7.6z M32.9,8.6h-0.5c0-0.1-0.2-0.3-0.5-0.8c-0.4-0.5-0.6-0.9-0.6-1.1h0c0,0.3,0,0.5,0,0.8
		c0,0.3,0,0.7,0,1.2h-0.5c0-0.4,0-0.8,0-1.3c0-0.5,0-0.9,0-1.2h0.6c0,0.1,0.2,0.3,0.5,0.8c0.3,0.5,0.5,0.9,0.6,1h0
		c0-0.3,0-0.5,0-0.8c0-0.3,0-0.7,0-1.1h0.5c0,0.3,0,0.7,0,1.2C32.9,7.8,32.9,8.3,32.9,8.6z M35.7,7.3c0,0.4-0.1,0.7-0.4,1
		c-0.2,0.3-0.6,0.4-1,0.4c-0.2,0-0.5,0-0.8,0c0-0.4,0-0.8,0-1.3c0-0.5,0-0.9,0-1.2h0.3c0.1,0,0.1,0,0.2,0c0.1,0,0.2,0,0.2,0
		c0.5,0,0.8,0.1,1,0.3C35.6,6.7,35.7,7,35.7,7.3L35.7,7.3z M35.2,7.4c0-0.2-0.1-0.5-0.2-0.6c-0.1-0.2-0.4-0.3-0.7-0.3
		c-0.1,0-0.1,0-0.2,0c0,0.3,0,0.5,0,0.8c0,0.3,0,0.6,0,0.9c0.1,0,0.2,0,0.3,0c0.3,0,0.5-0.1,0.6-0.3C35.1,7.8,35.2,7.6,35.2,7.4
		L35.2,7.4z M38.3,8.6h-0.6c-0.1-0.5-0.3-0.7-0.3-0.8c-0.1-0.1-0.2-0.2-0.4-0.2c-0.1,0-0.1,0-0.2,0c0,0.3,0,0.7,0,1h-0.5
		c0-0.4,0-0.8,0-1.3c0-0.5,0-0.9,0-1.2h0.3c0,0,0.1,0,0.2,0s0.2,0,0.3,0c0.6,0,0.9,0.2,0.9,0.6c0,0.3-0.2,0.5-0.5,0.7v0
		c0.1,0,0.2,0.1,0.3,0.3C38,7.9,38.2,8.2,38.3,8.6z M37.6,6.9c0-0.3-0.2-0.4-0.5-0.4c-0.1,0-0.2,0-0.3,0c0,0.2,0,0.5,0,0.8
		c0.1,0,0.1,0,0.2,0C37.4,7.3,37.6,7.2,37.6,6.9z M41.1,7.3c0,0.4-0.1,0.7-0.4,1c-0.2,0.3-0.5,0.4-0.9,0.4c-0.3,0-0.6-0.1-0.9-0.4
		c-0.2-0.2-0.3-0.5-0.3-0.9c0-0.4,0.1-0.7,0.4-1c0.2-0.3,0.5-0.4,0.9-0.4c0.3,0,0.6,0.1,0.9,0.4C41,6.7,41.1,7,41.1,7.3L41.1,7.3z
		 M40.6,7.4c0-0.3-0.1-0.5-0.2-0.7c-0.1-0.2-0.3-0.3-0.5-0.3c-0.2,0-0.3,0.1-0.5,0.3c-0.1,0.2-0.2,0.4-0.2,0.6
		c0,0.3,0.1,0.5,0.2,0.7c0.1,0.2,0.3,0.3,0.5,0.3c0.2,0,0.3-0.1,0.5-0.3C40.5,7.9,40.6,7.7,40.6,7.4L40.6,7.4z M42.2,8.6h-0.5
		c0-0.4,0-0.8,0-1.3c0-0.5,0-0.9,0-1.2h0.5c0,0.3,0,0.7,0,1.2C42.2,7.8,42.2,8.3,42.2,8.6z M45,7.3c0,0.4-0.1,0.7-0.4,1
		c-0.2,0.3-0.6,0.4-1,0.4c-0.2,0-0.5,0-0.8,0c0-0.4,0-0.8,0-1.3c0-0.5,0-0.9,0-1.2h0.3c0.1,0,0.1,0,0.2,0c0.1,0,0.2,0,0.2,0
		c0.5,0,0.8,0.1,1,0.3C44.9,6.7,45,7,45,7.3L45,7.3z M44.5,7.4c0-0.2-0.1-0.5-0.2-0.6c-0.1-0.2-0.4-0.3-0.7-0.3c-0.1,0-0.1,0-0.2,0
		c0,0.3,0,0.5,0,0.8c0,0.3,0,0.6,0,0.9c0.1,0,0.2,0,0.3,0c0.3,0,0.5-0.1,0.6-0.3C44.4,7.8,44.5,7.6,44.5,7.4z M48.7,8.6h-0.6
		c0-0.1-0.1-0.3-0.2-0.7H47c-0.1,0.4-0.2,0.6-0.2,0.7h-0.6c0-0.1,0.2-0.5,0.5-1.2c0.3-0.8,0.5-1.2,0.5-1.3h0.7
		c0,0.1,0.1,0.5,0.4,1.3C48.6,8.2,48.7,8.6,48.7,8.6L48.7,8.6z M47.8,7.6c-0.2-0.7-0.3-1-0.3-1.1h0c0,0.1-0.1,0.4-0.3,1.1L47.8,7.6
		L47.8,7.6z M51,6.8c0,0.3-0.1,0.5-0.3,0.7c-0.2,0.1-0.5,0.2-0.8,0.2c-0.1,0-0.1,0-0.1,0c0,0.2,0,0.6,0,1h-0.5c0-0.4,0-0.8,0-1.3
		c0-0.5,0-0.9,0-1.2h0.3c0,0,0.1,0,0.3,0c0.1,0,0.3,0,0.4,0c0.2,0,0.5,0.1,0.6,0.2C50.9,6.4,51,6.6,51,6.8L51,6.8z M50.5,6.9
		c0-0.3-0.2-0.4-0.5-0.4c-0.1,0-0.2,0-0.3,0c0,0.2,0,0.5,0,0.8c0,0,0.1,0,0.1,0C50.2,7.3,50.5,7.2,50.5,6.9z M53.3,6.8
		c0,0.3-0.1,0.5-0.3,0.7c-0.2,0.1-0.5,0.2-0.8,0.2c-0.1,0-0.1,0-0.1,0c0,0.2,0,0.6,0,1h-0.5c0-0.4,0-0.8,0-1.3c0-0.5,0-0.9,0-1.2
		h0.3c0,0,0.1,0,0.3,0c0.1,0,0.3,0,0.4,0c0.2,0,0.5,0.1,0.6,0.2C53.2,6.4,53.3,6.6,53.3,6.8L53.3,6.8z M52.8,6.9
		c0-0.3-0.2-0.4-0.5-0.4c-0.1,0-0.2,0-0.3,0c0,0.2,0,0.5,0,0.8c0,0,0.1,0,0.1,0C52.6,7.3,52.8,7.2,52.8,6.9z M57.1,7.3
		c0,0.4-0.1,0.7-0.4,1c-0.2,0.3-0.5,0.4-0.9,0.4c-0.3,0-0.6-0.1-0.9-0.4c-0.2-0.2-0.3-0.5-0.3-0.9c0-0.4,0.1-0.7,0.4-1
		c0.2-0.3,0.5-0.4,0.9-0.4c0.3,0,0.6,0.1,0.9,0.4C57,6.7,57.1,7,57.1,7.3L57.1,7.3z M56.5,7.4c0-0.3-0.1-0.5-0.2-0.7
		c-0.1-0.2-0.3-0.3-0.5-0.3c-0.2,0-0.3,0.1-0.5,0.3c-0.1,0.2-0.2,0.4-0.2,0.6c0,0.3,0.1,0.5,0.2,0.7c0.1,0.2,0.3,0.3,0.5,0.3
		c0.2,0,0.3-0.1,0.5-0.3C56.5,7.9,56.5,7.7,56.5,7.4L56.5,7.4z M59.7,8.6h-0.5c0-0.1-0.2-0.3-0.5-0.8c-0.4-0.5-0.6-0.9-0.6-1.1h0
		c0,0.3,0,0.5,0,0.8c0,0.3,0,0.7,0,1.2h-0.5c0-0.4,0-0.8,0-1.3c0-0.5,0-0.9,0-1.2h0.6c0,0.1,0.2,0.3,0.5,0.8c0.3,0.5,0.5,0.9,0.6,1
		h0c0-0.3,0-0.5,0-0.8c0-0.3,0-0.7,0-1.1h0.5c0,0.3,0,0.7,0,1.2C59.7,7.8,59.7,8.3,59.7,8.6z"/>
</g>
<g transform="scale(4.00216 4.0011)">
	<path class="st6" d="M54.5,6.6c0,0.4-0.3,0.7-0.7,0.7l0,0h-23c-0.4,0-0.7-0.3-0.7-0.7V1c0-0.4,0.3-0.7,0.7-0.7h23
		c0.4,0,0.7,0.3,0.7,0.7v0L54.5,6.6L54.5,6.6z"/>
	<path class="st7" d="M53.8,7.4h-23C30.4,7.4,30,7,30,6.6V1c0-0.5,0.4-0.9,0.9-0.9h23c0.5,0,0.9,0.4,0.9,0.9v5.6
		C54.7,7,54.3,7.4,53.8,7.4L53.8,7.4z"/>
	<path d="M54.5,6.6c0,0.4-0.3,0.7-0.7,0.7l0,0h-23c-0.4,0-0.7-0.3-0.7-0.7V1c0-0.4,0.3-0.7,0.7-0.7h23c0.4,0,0.7,0.3,0.7,0.7v0
		L54.5,6.6L54.5,6.6z"/>
	<path class="st6" d="M35.5,3.7c0-0.6,0.5-0.9,0.5-0.9c-0.3-0.4-0.7-0.5-0.9-0.5c-0.4,0-0.7,0.2-0.9,0.2c-0.2,0-0.5-0.2-0.8-0.2
		c-0.4,0-0.8,0.2-1,0.6c-0.4,0.7-0.1,1.8,0.3,2.4c0.2,0.3,0.4,0.6,0.7,0.6c0.3,0,0.4-0.2,0.8-0.2c0.4,0,0.5,0.2,0.8,0.2
		c0.3,0,0.5-0.3,0.7-0.6C36,5,36.1,4.7,36.1,4.7C36.1,4.7,35.5,4.4,35.5,3.7L35.5,3.7z M34.9,2c0.2-0.2,0.3-0.5,0.2-0.7
		c-0.2,0-0.5,0.2-0.7,0.4c-0.1,0.2-0.3,0.5-0.2,0.7C34.5,2.3,34.7,2.2,34.9,2L34.9,2z"/>
	
		<linearGradient id="SVGID_1_" gradientUnits="userSpaceOnUse" x1="231.8876" y1="34.6512" x2="231.8876" y2="36.076" gradientTransform="matrix(74.1746 0 0 -74.1346 -17152.0879 2576.293)">
		<stop  offset="0" style="stop-color:#1A1A1A;stop-opacity:0.1"/>
		<stop  offset="0.123" style="stop-color:#212121;stop-opacity:0.151"/>
		<stop  offset="0.308" style="stop-color:#353535;stop-opacity:0.227"/>
		<stop  offset="0.532" style="stop-color:#575757;stop-opacity:0.318"/>
		<stop  offset="0.783" style="stop-color:#858585;stop-opacity:0.421"/>
		<stop  offset="1" style="stop-color:#B3B3B3;stop-opacity:0.51"/>
	</linearGradient>
	<path class="st8" d="M53.8,0.1H41.5l4.8,7.3h7.5c0.5,0,0.9-0.4,0.9-0.9V1C54.7,0.5,54.3,0.1,53.8,0.1z"/>
	<g id="XMLID_22_">
		<path class="st6" d="M39.8,5.9h-0.4l-0.2-0.7h-0.8l-0.2,0.7h-0.4l0.8-2.4H39L39.8,5.9L39.8,5.9z M39.1,4.9l-0.2-0.6
			c0-0.1-0.1-0.2-0.1-0.5h0c0,0.1-0.1,0.3-0.1,0.5l-0.2,0.6H39.1z M41.8,5c0,0.3-0.1,0.5-0.2,0.7c-0.1,0.2-0.3,0.2-0.5,0.2
			c-0.2,0-0.4-0.1-0.5-0.2v0.9h-0.4V4.7c0-0.2,0-0.4,0-0.6h0.3l0,0.3h0c0.1-0.2,0.3-0.3,0.6-0.3c0.2,0,0.4,0.1,0.5,0.2
			C41.7,4.5,41.8,4.7,41.8,5L41.8,5z M41.4,5c0-0.2,0-0.3-0.1-0.4c-0.1-0.1-0.2-0.2-0.3-0.2c-0.1,0-0.2,0-0.3,0.1
			c-0.1,0.1-0.1,0.1-0.2,0.3c0,0,0,0.1,0,0.1v0.3c0,0.1,0,0.2,0.1,0.3c0.1,0.1,0.2,0.1,0.3,0.1c0.1,0,0.3-0.1,0.3-0.2
			C41.4,5.3,41.4,5.2,41.4,5z M43.8,5c0,0.3-0.1,0.5-0.2,0.7c-0.1,0.2-0.3,0.2-0.5,0.2c-0.2,0-0.4-0.1-0.5-0.2v0.9h-0.4V4.7
			c0-0.2,0-0.4,0-0.6h0.3l0,0.3h0c0.1-0.2,0.3-0.3,0.6-0.3c0.2,0,0.4,0.1,0.5,0.2C43.8,4.5,43.8,4.7,43.8,5L43.8,5z M43.4,5
			c0-0.2,0-0.3-0.1-0.4c-0.1-0.1-0.2-0.2-0.3-0.2c-0.1,0-0.2,0-0.3,0.1c-0.1,0.1-0.1,0.1-0.2,0.3c0,0,0,0.1,0,0.1v0.3
			c0,0.1,0,0.2,0.1,0.3c0.1,0.1,0.2,0.1,0.3,0.1c0.1,0,0.3-0.1,0.3-0.2C43.4,5.3,43.4,5.2,43.4,5z M46.1,5.2c0,0.2-0.1,0.4-0.2,0.5
			c-0.2,0.1-0.4,0.2-0.7,0.2c-0.3,0-0.5-0.1-0.6-0.2l0.1-0.3c0.2,0.1,0.4,0.2,0.6,0.2c0.1,0,0.3,0,0.3-0.1c0.1-0.1,0.1-0.2,0.1-0.3
			c0-0.1,0-0.2-0.1-0.2c-0.1-0.1-0.2-0.1-0.3-0.2c-0.4-0.2-0.6-0.4-0.6-0.7c0-0.2,0.1-0.4,0.2-0.5c0.2-0.1,0.3-0.2,0.6-0.2
			c0.2,0,0.4,0,0.6,0.1l-0.1,0.3c-0.1-0.1-0.3-0.1-0.5-0.1c-0.1,0-0.2,0-0.3,0.1C45,3.9,45,4,45,4c0,0.1,0,0.2,0.1,0.2
			c0.1,0.1,0.2,0.1,0.4,0.2c0.2,0.1,0.4,0.2,0.5,0.3C46,4.9,46.1,5,46.1,5.2L46.1,5.2z M47.4,4.4h-0.4v0.9c0,0.2,0.1,0.3,0.2,0.3
			c0.1,0,0.1,0,0.2,0l0,0.3c-0.1,0-0.2,0-0.3,0c-0.2,0-0.3,0-0.4-0.1c-0.1-0.1-0.1-0.3-0.1-0.5V4.4h-0.3V4.1h0.3V3.8l0.4-0.1v0.4
			h0.4L47.4,4.4L47.4,4.4z M49.3,5c0,0.3-0.1,0.5-0.2,0.7c-0.2,0.2-0.4,0.3-0.6,0.3c-0.3,0-0.5-0.1-0.6-0.3
			c-0.2-0.2-0.2-0.4-0.2-0.6c0-0.3,0.1-0.5,0.2-0.7c0.2-0.2,0.4-0.3,0.6-0.3c0.3,0,0.5,0.1,0.6,0.3C49.2,4.5,49.3,4.7,49.3,5L49.3,5
			z M48.9,5c0-0.2,0-0.3-0.1-0.4c-0.1-0.1-0.2-0.2-0.4-0.2c-0.2,0-0.3,0.1-0.4,0.2C48,4.7,48,4.8,48,5c0,0.2,0,0.3,0.1,0.4
			c0.1,0.1,0.2,0.2,0.4,0.2c0.1,0,0.3-0.1,0.4-0.2C48.9,5.3,48.9,5.1,48.9,5L48.9,5z M50.6,4.5c0,0-0.1,0-0.1,0
			c-0.1,0-0.2,0.1-0.3,0.2C50.1,4.7,50,4.8,50,4.9v0.9h-0.4V4.7c0-0.2,0-0.4,0-0.6H50l0,0.3h0c0-0.1,0.1-0.2,0.2-0.3
			c0.1-0.1,0.2-0.1,0.3-0.1c0,0,0.1,0,0.1,0L50.6,4.5L50.6,4.5z M52.3,4.9c0,0.1,0,0.1,0,0.2h-1.2c0,0.2,0.1,0.3,0.2,0.4
			c0.1,0.1,0.2,0.1,0.4,0.1c0.2,0,0.3,0,0.5-0.1l0.1,0.3c-0.2,0.1-0.4,0.1-0.6,0.1c-0.3,0-0.5-0.1-0.6-0.2c-0.2-0.2-0.2-0.4-0.2-0.6
			c0-0.3,0.1-0.5,0.2-0.7c0.2-0.2,0.4-0.3,0.6-0.3c0.3,0,0.4,0.1,0.6,0.3C52.3,4.5,52.3,4.7,52.3,4.9L52.3,4.9z M52,4.8
			c0-0.1,0-0.2-0.1-0.3c-0.1-0.1-0.2-0.2-0.3-0.2c-0.1,0-0.2,0.1-0.3,0.2c-0.1,0.1-0.1,0.2-0.1,0.3L52,4.8L52,4.8z"/>
	</g>
	<g id="XMLID_1_">
		<path class="st6" d="M38.2,2.6c-0.1,0-0.2,0-0.3,0V1.4c0.1,0,0.2,0,0.3,0c0.4,0,0.7,0.2,0.7,0.6C38.9,2.3,38.7,2.6,38.2,2.6z
			 M38.3,1.5c-0.1,0-0.1,0-0.2,0v0.9c0,0,0.1,0,0.1,0c0.3,0,0.5-0.2,0.5-0.5C38.7,1.7,38.6,1.5,38.3,1.5z M39.6,2.6
			c-0.3,0-0.4-0.2-0.4-0.4c0-0.3,0.2-0.5,0.4-0.5c0.2,0,0.4,0.2,0.4,0.4C40,2.4,39.8,2.6,39.6,2.6L39.6,2.6z M39.6,1.8
			c-0.1,0-0.2,0.1-0.2,0.3c0,0.2,0.1,0.3,0.2,0.3s0.2-0.1,0.2-0.3C39.8,2,39.7,1.8,39.6,1.8L39.6,1.8z M41.5,1.7l-0.3,0.9H41
			l-0.1-0.4c0-0.1-0.1-0.2-0.1-0.3h0c0,0.1,0,0.2-0.1,0.3l-0.1,0.4h-0.2l-0.3-0.9h0.2l0.1,0.4c0,0.1,0,0.2,0.1,0.3h0
			c0-0.1,0-0.2,0.1-0.3l0.1-0.4h0.2L41,2.1c0,0.1,0.1,0.2,0.1,0.3h0c0-0.1,0-0.2,0.1-0.3l0.1-0.4L41.5,1.7L41.5,1.7z M42.5,2.6h-0.2
			V2.1c0-0.2-0.1-0.2-0.2-0.2c-0.1,0-0.2,0.1-0.2,0.2v0.5h-0.2V1.9c0-0.1,0-0.2,0-0.2h0.2l0,0.1h0c0.1-0.1,0.2-0.2,0.3-0.2
			c0.2,0,0.3,0.1,0.3,0.4L42.5,2.6L42.5,2.6z M43,2.6h-0.2V1.3H43V2.6z M43.7,2.6c-0.3,0-0.4-0.2-0.4-0.4c0-0.3,0.2-0.5,0.4-0.5
			c0.2,0,0.4,0.2,0.4,0.4C44.1,2.4,43.9,2.6,43.7,2.6L43.7,2.6z M43.7,1.8c-0.1,0-0.2,0.1-0.2,0.3c0,0.2,0.1,0.3,0.2,0.3
			c0.1,0,0.2-0.1,0.2-0.3C43.9,2,43.8,1.8,43.7,1.8L43.7,1.8z M44.9,2.6L44.9,2.6L44.9,2.6c-0.1,0-0.2,0-0.3,0
			c-0.2,0-0.3-0.1-0.3-0.3c0-0.2,0.2-0.3,0.5-0.3v0c0-0.1-0.1-0.2-0.2-0.2c-0.1,0-0.2,0-0.2,0.1l0-0.1c0.1,0,0.2-0.1,0.3-0.1
			C44.9,1.7,45,1.8,45,2v0.3c0,0.1,0,0.2,0,0.2L44.9,2.6L44.9,2.6z M44.8,2.1c-0.2,0-0.3,0.1-0.3,0.2c0,0.1,0.1,0.1,0.1,0.1
			c0.1,0,0.2-0.1,0.2-0.2V2.1z M46,2.6l0-0.1h0c-0.1,0.1-0.1,0.2-0.3,0.2c-0.2,0-0.4-0.2-0.4-0.4c0-0.3,0.2-0.5,0.4-0.5
			c0.1,0,0.2,0,0.2,0.1h0V1.3h0.2v1c0,0.1,0,0.2,0,0.2L46,2.6L46,2.6z M45.9,2.1c0-0.1-0.1-0.2-0.2-0.2c-0.1,0-0.2,0.1-0.2,0.3
			c0,0.2,0.1,0.3,0.2,0.3c0.1,0,0.2-0.1,0.2-0.2V2.1L45.9,2.1z M47.3,2.6c-0.3,0-0.4-0.2-0.4-0.4c0-0.3,0.2-0.5,0.4-0.5
			c0.2,0,0.4,0.2,0.4,0.4C47.8,2.4,47.6,2.6,47.3,2.6L47.3,2.6z M47.3,1.8c-0.1,0-0.2,0.1-0.2,0.3c0,0.2,0.1,0.3,0.2,0.3
			c0.1,0,0.2-0.1,0.2-0.3C47.6,2,47.5,1.8,47.3,1.8L47.3,1.8z M48.8,2.6h-0.2V2.1c0-0.2-0.1-0.2-0.2-0.2c-0.1,0-0.2,0.1-0.2,0.2v0.5
			h-0.2V1.9c0-0.1,0-0.2,0-0.2h0.2l0,0.1h0c0.1-0.1,0.2-0.2,0.3-0.2c0.2,0,0.3,0.1,0.3,0.4V2.6z M50.1,1.8h-0.2v0.4
			c0,0.1,0,0.2,0.1,0.2c0,0,0.1,0,0.1,0l0,0.1c0,0-0.1,0-0.1,0c-0.2,0-0.2-0.1-0.2-0.3V1.8h-0.1V1.7h0.1V1.5l0.2-0.1v0.2h0.2
			L50.1,1.8L50.1,1.8z M51.1,2.6h-0.2V2.1c0-0.2-0.1-0.2-0.2-0.2c-0.1,0-0.2,0.1-0.2,0.2v0.5h-0.2V1.3h0.2v0.5h0
			c0.1-0.1,0.1-0.1,0.3-0.1c0.2,0,0.3,0.1,0.3,0.4L51.1,2.6L51.1,2.6z M52.2,2.2h-0.6c0,0.2,0.1,0.3,0.3,0.3c0.1,0,0.2,0,0.2,0
			l0,0.1c-0.1,0-0.2,0.1-0.3,0.1c-0.3,0-0.4-0.2-0.4-0.4c0-0.3,0.2-0.5,0.4-0.5C52,1.7,52.2,1.8,52.2,2.2
			C52.2,2.1,52.2,2.1,52.2,2.2L52.2,2.2z M52,2c0-0.1-0.1-0.2-0.2-0.2c-0.1,0-0.2,0.1-0.2,0.2H52L52,2z"/>
	</g>
</g>
</svg>