<!-- Generator: Adobe Illustrator 19.2.1, SVG Export Plug-In  -->
<svg version="1.1"
	 xmlns="http://www.w3.org/2000/svg" xmlns:xlink="http://www.w3.org/1999/xlink" xmlns:a="http://ns.adobe.com/AdobeSVGViewerExtensions/3.0/"
	 x="0px" y="0px" width="443.6px" height="443.6px" viewBox="0 0 443.6 443.6" style="enable-background:new 0 0 443.6 443.6;"
	 xml:space="preserve">
<style type="text/css">
	.st0{fill:#004C97;}
	.st1{fill:#FFFFFF;}
</style>
<defs>
</defs>
<circle class="st0" cx="221.8" cy="221.8" r="221.8"/>
<g id="XMLID_25_">
	<path id="XMLID_30_" class="st1" d="M218.3,270.8c0,0-21.2,1.1-28,1.9c-5.6,0.7-21.5,3.6-21.5,3.6V61.6l49.5-34.2V270.8z"/>
	<path id="XMLID_29_" class="st1" d="M160.7,278.5c0,0-11.6,2.5-15.3,3.6c-3.7,1.1-14.3,5.4-14.3,5.4V146.5l29.5-18.8V278.5z"/>
	<polygon id="XMLID_28_" class="st1" points="122,290.2 102,298.9 102,209.6 122,196.2 	"/>
	<g id="XMLID_27_">
		<path class="st1" d="M226.3,270.4c0,0,21.2,1.1,28,1.9c5.6,0.7,21.5,3.6,21.5,3.6V61.2L226.3,27V270.4z"/>
		<path class="st1" d="M283.9,278c0,0,11.6,2.5,15.3,3.6c3.7,1.1,14.3,5.4,14.3,5.4V146.1l-29.5-18.8V278z"/>
		<polygon class="st1" points="322.7,289.7 342.6,298.5 342.6,209.1 322.7,195.7 		"/>
	</g>
	<path id="XMLID_26_" class="st1" d="M90.8,312.8c0,0,48.1-18.2,131-21.9c62.1-2.8,131,21.9,131,21.9s-37.8-20.3-56.9-25.4
		c-13.8-3.7-57-9.6-75.2-9.6c-21.5,0-55.1,3.8-72.1,9.1C133.2,291.8,90.8,312.8,90.8,312.8z"/>
</g>
<g id="XMLID_1_">
	<path id="XMLID_22_" class="st1" d="M98,331h10.6c3.3,0,5.8,0.7,7.6,2.1c1.8,1.4,2.7,3.6,2.7,6.4c0,2.6-0.7,4.8-2.1,6.6
		c-1.4,1.8-3.2,3.2-5.3,4.3l4.7,14.2h-5.9l-4.4-12.7h-6l-2.2,12.7h-5.7L98,331z M106.1,346.6c2,0,3.6-0.6,4.9-1.7
		c1.3-1.2,1.9-2.8,1.9-4.8c0-1.4-0.4-2.5-1.1-3.3c-0.8-0.7-2-1.1-3.7-1.1h-5.2l-1.9,10.9H106.1z"/>
	<path id="XMLID_20_" class="st1" d="M126.7,331h20.2l-1,5.4h-14.4l-1.4,8h11.1l-0.9,5.4h-11.2l-1.7,9.5h14.8l-1,5.4h-20.6
		L126.7,331z"/>
	<path id="XMLID_17_" class="st1" d="M160.8,331h5.4l5.3,33.6h-5.9l-1.3-8.4h-10.7l-4.2,8.4h-5.9L160.8,331z M163.4,350.8l-1.4-11.1
		l-5.4,11.1H163.4z"/>
	<path id="XMLID_15_" class="st1" d="M181.4,331h5.7l-5,28.2h13.2l-1,5.4h-18.8L181.4,331z"/>
	<path id="XMLID_13_" class="st1" d="M204.5,331h20.2l-1,5.4h-14.4l-1.4,8h11.1l-0.9,5.4H207l-1.7,9.5h14.8l-1,5.4h-20.6L204.5,331z
		"/>
	<path id="XMLID_11_" class="st1" d="M228.2,364.6c-1.8-0.4-3.3-1-4.6-1.7l1.8-6.5c1.2,1,2.5,1.9,4.1,2.5c1.6,0.7,3.3,1,5.2,1
		c2,0,3.7-0.4,4.9-1.1c1.2-0.7,1.8-1.9,1.8-3.5c0-1.4-0.5-2.6-1.5-3.3c-1-0.8-2.6-1.6-5-2.4c-1.8-0.6-3.2-1.3-4.3-2
		c-1.1-0.7-2-1.5-2.6-2.6c-0.6-1.1-1-2.4-1-4.1c0-1.9,0.5-3.6,1.5-5.2s2.5-2.9,4.4-3.9c1.9-1,4.2-1.5,6.9-1.5c2.1,0,4,0.2,5.8,0.7
		s3.2,1.1,4.3,1.8l-1.6,5.9c-1.7-1.1-3.2-1.8-4.5-2.3s-2.8-0.7-4.4-0.7c-1.8,0-3.3,0.4-4.6,1.1c-1.2,0.7-1.9,1.8-1.9,3.3
		c0,1.2,0.4,2,1.3,2.7c0.9,0.6,2.3,1.3,4.3,2c2,0.7,3.7,1.4,4.9,2c1.2,0.6,2.2,1.5,3.1,2.7c0.9,1.2,1.3,2.7,1.3,4.6
		c0,1.9-0.5,3.7-1.4,5.4c-0.9,1.7-2.4,3.1-4.5,4.2c-2.1,1.1-4.7,1.6-8,1.6C231.9,365.3,230,365,228.2,364.6z"/>
	<path id="XMLID_9_" class="st1" d="M263.1,336.4h-9l1-5.4h23.6l-1,5.4h-9l-4.9,28.2h-5.7L263.1,336.4z"/>
	<path id="XMLID_6_" class="st1" d="M289,331h5.4l5.3,33.6h-5.9l-1.3-8.4h-10.7l-4.2,8.4h-5.9L289,331z M291.6,350.8l-1.4-11.1
		l-5.4,11.1H291.6z"/>
	<path id="XMLID_4_" class="st1" d="M312.2,336.4h-9l1-5.4h23.6l-1,5.4h-9l-4.9,28.2h-5.7L312.2,336.4z"/>
	<path id="XMLID_2_" class="st1" d="M333,331h20.2l-1,5.4h-14.4l-1.4,8h11.1l-0.9,5.4h-11.2l-1.7,9.5h14.8l-1,5.4h-20.6L333,331z"/>
</g>
</svg>